<mxfile host="app.diagrams.net" agent="Mozilla/5.0 (Macintosh; Intel Mac OS X 10_15_7) AppleWebKit/537.36 (KHTML, like Gecko) Chrome/127.0.0.0 Safari/537.36" version="24.7.7">
  <diagram id="C5RBs43oDa-KdzZeNtuy" name="Page-1">
    <mxGraphModel dx="1026" dy="585" grid="1" gridSize="10" guides="1" tooltips="1" connect="1" arrows="1" fold="1" page="1" pageScale="1" pageWidth="827" pageHeight="1169" background="#FFFFFF" math="0" shadow="0">
      <root>
        <mxCell id="WIyWlLk6GJQsqaUBKTNV-0" />
        <mxCell id="WIyWlLk6GJQsqaUBKTNV-1" parent="WIyWlLk6GJQsqaUBKTNV-0" />
        <mxCell id="063DwYWzlrR6H0AeMpfx-14" style="edgeStyle=orthogonalEdgeStyle;rounded=1;orthogonalLoop=1;jettySize=auto;html=1;exitX=0.5;exitY=1;exitDx=0;exitDy=0;entryX=0.5;entryY=0;entryDx=0;entryDy=0;curved=0;fontFamily=Figtree;fontSource=https%3A%2F%2Ffonts.googleapis.com%2Fcss%3Ffamily%3DFigtree;fontSize=8;" parent="WIyWlLk6GJQsqaUBKTNV-1" source="063DwYWzlrR6H0AeMpfx-7" target="063DwYWzlrR6H0AeMpfx-8" edge="1">
          <mxGeometry relative="1" as="geometry">
            <Array as="points">
              <mxPoint x="408" y="100" />
              <mxPoint x="108" y="100" />
            </Array>
          </mxGeometry>
        </mxCell>
        <mxCell id="063DwYWzlrR6H0AeMpfx-17" style="edgeStyle=orthogonalEdgeStyle;rounded=1;orthogonalLoop=1;jettySize=auto;html=1;exitX=0.5;exitY=1;exitDx=0;exitDy=0;entryX=0.5;entryY=0;entryDx=0;entryDy=0;curved=0;fontFamily=Figtree;fontSource=https%3A%2F%2Ffonts.googleapis.com%2Fcss%3Ffamily%3DFigtree;fontSize=8;" parent="WIyWlLk6GJQsqaUBKTNV-1" source="063DwYWzlrR6H0AeMpfx-7" target="063DwYWzlrR6H0AeMpfx-11" edge="1">
          <mxGeometry relative="1" as="geometry">
            <Array as="points">
              <mxPoint x="408" y="100" />
              <mxPoint x="708" y="100" />
            </Array>
          </mxGeometry>
        </mxCell>
        <mxCell id="063DwYWzlrR6H0AeMpfx-18" style="edgeStyle=orthogonalEdgeStyle;rounded=1;orthogonalLoop=1;jettySize=auto;html=1;curved=0;fontFamily=Figtree;fontSource=https%3A%2F%2Ffonts.googleapis.com%2Fcss%3Ffamily%3DFigtree;fontSize=8;" parent="WIyWlLk6GJQsqaUBKTNV-1" source="063DwYWzlrR6H0AeMpfx-7" target="063DwYWzlrR6H0AeMpfx-10" edge="1">
          <mxGeometry relative="1" as="geometry" />
        </mxCell>
        <mxCell id="063DwYWzlrR6H0AeMpfx-19" style="edgeStyle=orthogonalEdgeStyle;rounded=1;orthogonalLoop=1;jettySize=auto;html=1;curved=0;fontFamily=Figtree;fontSource=https%3A%2F%2Ffonts.googleapis.com%2Fcss%3Ffamily%3DFigtree;fontSize=8;" parent="WIyWlLk6GJQsqaUBKTNV-1" source="063DwYWzlrR6H0AeMpfx-7" target="063DwYWzlrR6H0AeMpfx-9" edge="1">
          <mxGeometry relative="1" as="geometry">
            <Array as="points">
              <mxPoint x="408" y="100" />
              <mxPoint x="308" y="100" />
            </Array>
          </mxGeometry>
        </mxCell>
        <mxCell id="063DwYWzlrR6H0AeMpfx-7" value="&lt;h6 style=&quot;line-height: 100%; font-size: 10px;&quot;&gt;&lt;font style=&quot;font-size: 10px; font-weight: normal;&quot;&gt;&quot;I have an idea that GA4GH could address&quot;&lt;/font&gt;&lt;/h6&gt;" style="rounded=1;whiteSpace=wrap;absoluteArcSize=0;arcSize=60;fontFamily=Figtree;fontSource=https%3A%2F%2Ffonts.googleapis.com%2Fcss%3Ffamily%3DFigtree;fontSize=10;html=1;fillColor=#f5f5f5;fontColor=#333333;strokeColor=#666666;align=center;vertical-align:middle;" parent="WIyWlLk6GJQsqaUBKTNV-1" vertex="1">
          <mxGeometry x="313" y="40" width="190" height="40" as="geometry" />
        </mxCell>
        <mxCell id="063DwYWzlrR6H0AeMpfx-23" style="edgeStyle=orthogonalEdgeStyle;rounded=0;orthogonalLoop=1;jettySize=auto;html=1;exitX=0.5;exitY=1;exitDx=0;exitDy=0;entryX=0.5;entryY=0;entryDx=0;entryDy=0;fontFamily=Figtree;fontSource=https%3A%2F%2Ffonts.googleapis.com%2Fcss%3Ffamily%3DFigtree;fontSize=8;" parent="WIyWlLk6GJQsqaUBKTNV-1" source="063DwYWzlrR6H0AeMpfx-8" target="063DwYWzlrR6H0AeMpfx-20" edge="1">
          <mxGeometry relative="1" as="geometry" />
        </mxCell>
        <mxCell id="063DwYWzlrR6H0AeMpfx-8" value="Bring an outside product to GA4GH" style="rounded=0;whiteSpace=wrap;strokeColor=none;fillColor=#4FAEDC;fontFamily=Figtree;fontSource=https%3A%2F%2Ffonts.googleapis.com%2Fcss%3Ffamily%3DFigtree;fontSize=10;html=1;fontColor=#FFFFFF;verticalAlign=middle;horizontal=1;" parent="WIyWlLk6GJQsqaUBKTNV-1" vertex="1">
          <mxGeometry x="28" y="120" width="160" height="50" as="geometry" />
        </mxCell>
        <mxCell id="063DwYWzlrR6H0AeMpfx-24" style="edgeStyle=orthogonalEdgeStyle;rounded=1;orthogonalLoop=1;jettySize=auto;html=1;exitX=0.5;exitY=1;exitDx=0;exitDy=0;curved=0;fontFamily=Figtree;fontSource=https%3A%2F%2Ffonts.googleapis.com%2Fcss%3Ffamily%3DFigtree;fontSize=8;" parent="WIyWlLk6GJQsqaUBKTNV-1" source="063DwYWzlrR6H0AeMpfx-9" target="063DwYWzlrR6H0AeMpfx-21" edge="1">
          <mxGeometry relative="1" as="geometry">
            <Array as="points">
              <mxPoint x="308" y="190" />
              <mxPoint x="508" y="190" />
            </Array>
          </mxGeometry>
        </mxCell>
        <mxCell id="063DwYWzlrR6H0AeMpfx-9" value="&lt;h6 style=&quot;font-size: 10px;&quot;&gt;&lt;font style=&quot;font-size: 10px; font-weight: normal;&quot; data-font-src=&quot;https://fonts.googleapis.com/css?family=Figtree&quot; color=&quot;#ffffff&quot;&gt;Update an existing product&lt;/font&gt;&lt;/h6&gt;" style="rounded=0;whiteSpace=wrap;html=1;strokeColor=none;fillColor=#4FAEDC;fontFamily=Figtree;fontSource=https%3A%2F%2Ffonts.googleapis.com%2Fcss%3Ffamily%3DFigtree;fontSize=10;" parent="WIyWlLk6GJQsqaUBKTNV-1" vertex="1">
          <mxGeometry x="228" y="120" width="160" height="50" as="geometry" />
        </mxCell>
        <mxCell id="063DwYWzlrR6H0AeMpfx-27" style="edgeStyle=orthogonalEdgeStyle;rounded=0;orthogonalLoop=1;jettySize=auto;html=1;exitX=0.5;exitY=1;exitDx=0;exitDy=0;entryX=0.5;entryY=0;entryDx=0;entryDy=0;fontFamily=Figtree;fontSource=https%3A%2F%2Ffonts.googleapis.com%2Fcss%3Ffamily%3DFigtree;fontSize=8;" parent="WIyWlLk6GJQsqaUBKTNV-1" source="063DwYWzlrR6H0AeMpfx-10" target="063DwYWzlrR6H0AeMpfx-21" edge="1">
          <mxGeometry relative="1" as="geometry" />
        </mxCell>
        <mxCell id="063DwYWzlrR6H0AeMpfx-10" value="&lt;font style=&quot;font-size: 10px;&quot; color=&quot;#ffffff&quot;&gt;Share an issue where a&amp;nbsp;&lt;/font&gt;&lt;div style=&quot;font-size: 10px;&quot;&gt;&lt;font style=&quot;font-size: 10px;&quot; color=&quot;#ffffff&quot;&gt;product might help&lt;/font&gt;&lt;/div&gt;" style="rounded=0;whiteSpace=wrap;html=1;strokeColor=none;fillColor=#4FAEDC;fontFamily=Figtree;fontSource=https%3A%2F%2Ffonts.googleapis.com%2Fcss%3Ffamily%3DFigtree;fontSize=10;" parent="WIyWlLk6GJQsqaUBKTNV-1" vertex="1">
          <mxGeometry x="428" y="120" width="160" height="50" as="geometry" />
        </mxCell>
        <mxCell id="063DwYWzlrR6H0AeMpfx-26" style="edgeStyle=orthogonalEdgeStyle;rounded=1;orthogonalLoop=1;jettySize=auto;html=1;exitX=0.5;exitY=1;exitDx=0;exitDy=0;entryX=0.5;entryY=0;entryDx=0;entryDy=0;curved=0;fontFamily=Figtree;fontSource=https%3A%2F%2Ffonts.googleapis.com%2Fcss%3Ffamily%3DFigtree;fontSize=8;" parent="WIyWlLk6GJQsqaUBKTNV-1" source="063DwYWzlrR6H0AeMpfx-11" target="063DwYWzlrR6H0AeMpfx-21" edge="1">
          <mxGeometry relative="1" as="geometry">
            <Array as="points">
              <mxPoint x="708" y="190" />
              <mxPoint x="508" y="190" />
            </Array>
          </mxGeometry>
        </mxCell>
        <mxCell id="063DwYWzlrR6H0AeMpfx-11" value="&lt;font color=&quot;#ffffff&quot; style=&quot;font-size: 10px;&quot;&gt;Share an idea for a product&lt;/font&gt;" style="rounded=0;whiteSpace=wrap;html=1;strokeColor=none;fillColor=#4FAEDC;fontFamily=Figtree;fontSource=https%3A%2F%2Ffonts.googleapis.com%2Fcss%3Ffamily%3DFigtree;fontSize=10;" parent="WIyWlLk6GJQsqaUBKTNV-1" vertex="1">
          <mxGeometry x="628" y="120" width="160" height="50" as="geometry" />
        </mxCell>
        <mxCell id="063DwYWzlrR6H0AeMpfx-31" style="edgeStyle=orthogonalEdgeStyle;rounded=0;orthogonalLoop=1;jettySize=auto;html=1;exitX=0.5;exitY=1;exitDx=0;exitDy=0;entryX=0.5;entryY=0;entryDx=0;entryDy=0;fontFamily=Figtree;fontSource=https%3A%2F%2Ffonts.googleapis.com%2Fcss%3Ffamily%3DFigtree;fontSize=8;" parent="WIyWlLk6GJQsqaUBKTNV-1" source="063DwYWzlrR6H0AeMpfx-20" target="063DwYWzlrR6H0AeMpfx-30" edge="1">
          <mxGeometry relative="1" as="geometry" />
        </mxCell>
        <mxCell id="063DwYWzlrR6H0AeMpfx-40" value="Yes" style="edgeLabel;html=1;align=center;verticalAlign=middle;resizable=0;points=[];fontFamily=Figtree;labelBackgroundColor=#FFFFFF;fontSize=8;fontSource=https%3A%2F%2Ffonts.googleapis.com%2Fcss%3Ffamily%3DFigtree;" parent="063DwYWzlrR6H0AeMpfx-31" connectable="0" vertex="1">
          <mxGeometry x="-0.25" y="1" relative="1" as="geometry">
            <mxPoint as="offset" />
          </mxGeometry>
        </mxCell>
        <mxCell id="063DwYWzlrR6H0AeMpfx-32" style="edgeStyle=orthogonalEdgeStyle;rounded=1;orthogonalLoop=1;jettySize=auto;html=1;exitX=1;exitY=0.5;exitDx=0;exitDy=0;entryX=0;entryY=0.5;entryDx=0;entryDy=0;fontFamily=Figtree;fontSource=https%3A%2F%2Ffonts.googleapis.com%2Fcss%3Ffamily%3DFigtree;fontSize=8;curved=0;" parent="WIyWlLk6GJQsqaUBKTNV-1" source="063DwYWzlrR6H0AeMpfx-20" target="063DwYWzlrR6H0AeMpfx-21" edge="1">
          <mxGeometry relative="1" as="geometry">
            <Array as="points">
              <mxPoint x="310" y="250" />
              <mxPoint x="310" y="310" />
            </Array>
          </mxGeometry>
        </mxCell>
        <UserObject label="&lt;font style=&quot;font-size: 10px;&quot; color=&quot;#ffffff&quot;&gt;Are there IP or other&amp;nbsp;&lt;/font&gt;&lt;div&gt;&lt;font style=&quot;font-size: 10px;&quot; color=&quot;#ffffff&quot;&gt;issues? (#1)&lt;/font&gt;&lt;/div&gt;" link="#point1" id="063DwYWzlrR6H0AeMpfx-20">
          <mxCell style="rhombus;whiteSpace=wrap;html=1;strokeColor=none;fillColor=#1b75bb;fontFamily=Figtree;fontSource=https%3A%2F%2Ffonts.googleapis.com%2Fcss%3Ffamily%3DFigtree;fontSize=10;" parent="WIyWlLk6GJQsqaUBKTNV-1" vertex="1">
            <mxGeometry x="28" y="210" width="160" height="80" as="geometry" />
          </mxCell>
        </UserObject>
        <mxCell id="063DwYWzlrR6H0AeMpfx-34" style="edgeStyle=orthogonalEdgeStyle;rounded=1;orthogonalLoop=1;jettySize=auto;html=1;exitX=0.5;exitY=1;exitDx=0;exitDy=0;entryX=0.5;entryY=0;entryDx=0;entryDy=0;curved=0;fontFamily=Figtree;fontSource=https%3A%2F%2Ffonts.googleapis.com%2Fcss%3Ffamily%3DFigtree;fontSize=8;" parent="WIyWlLk6GJQsqaUBKTNV-1" source="063DwYWzlrR6H0AeMpfx-21" target="063DwYWzlrR6H0AeMpfx-28" edge="1">
          <mxGeometry relative="1" as="geometry">
            <mxPoint x="508" y="396" as="sourcePoint" />
            <Array as="points">
              <mxPoint x="508" y="400" />
              <mxPoint x="370" y="400" />
            </Array>
          </mxGeometry>
        </mxCell>
        <UserObject label="&lt;font color=&quot;#ffffff&quot; style=&quot;font-size: 10px;&quot;&gt;Is there already an&amp;nbsp;&lt;/font&gt;&lt;div style=&quot;font-size: 10px;&quot;&gt;&lt;font color=&quot;#ffffff&quot; style=&quot;font-size: 10px;&quot;&gt;active group? (#2)&lt;/font&gt;&lt;/div&gt;" link="#point2" id="063DwYWzlrR6H0AeMpfx-21">
          <mxCell style="rhombus;whiteSpace=wrap;html=1;strokeColor=none;fillColor=#1b75bb;fontFamily=Figtree;fontSource=https%3A%2F%2Ffonts.googleapis.com%2Fcss%3Ffamily%3DFigtree;fontSize=10;" parent="WIyWlLk6GJQsqaUBKTNV-1" vertex="1">
            <mxGeometry x="428" y="270" width="160" height="80" as="geometry" />
          </mxCell>
        </UserObject>
        <mxCell id="063DwYWzlrR6H0AeMpfx-47" style="edgeStyle=orthogonalEdgeStyle;rounded=0;orthogonalLoop=1;jettySize=auto;html=1;exitX=0.5;exitY=1;exitDx=0;exitDy=0;entryX=0.5;entryY=0;entryDx=0;entryDy=0;fontFamily=Figtree;fontSource=https%3A%2F%2Ffonts.googleapis.com%2Fcss%3Ffamily%3DFigtree;fontSize=8;" parent="WIyWlLk6GJQsqaUBKTNV-1" source="063DwYWzlrR6H0AeMpfx-28" target="063DwYWzlrR6H0AeMpfx-45" edge="1">
          <mxGeometry relative="1" as="geometry" />
        </mxCell>
        <mxCell id="063DwYWzlrR6H0AeMpfx-28" value="&lt;font style=&quot;font-size: 10px;&quot; data-font-src=&quot;https://fonts.googleapis.com/css?family=Figtree&quot; color=&quot;#ffffff&quot;&gt;Engage with existing group&lt;/font&gt;" style="rounded=0;whiteSpace=wrap;html=1;strokeColor=none;fillColor=#4FAEDC;fontFamily=Figtree;fontSource=https%3A%2F%2Ffonts.googleapis.com%2Fcss%3Ffamily%3DFigtree;fontSize=10;" parent="WIyWlLk6GJQsqaUBKTNV-1" vertex="1">
          <mxGeometry x="290" y="456" width="160" height="50" as="geometry" />
        </mxCell>
        <mxCell id="063DwYWzlrR6H0AeMpfx-48" style="edgeStyle=orthogonalEdgeStyle;rounded=0;orthogonalLoop=1;jettySize=auto;html=1;exitX=0.5;exitY=1;exitDx=0;exitDy=0;entryX=0.5;entryY=0;entryDx=0;entryDy=0;fontFamily=Figtree;fontSource=https%3A%2F%2Ffonts.googleapis.com%2Fcss%3Ffamily%3DFigtree;fontSize=8;" parent="WIyWlLk6GJQsqaUBKTNV-1" source="063DwYWzlrR6H0AeMpfx-29" target="063DwYWzlrR6H0AeMpfx-46" edge="1">
          <mxGeometry relative="1" as="geometry" />
        </mxCell>
        <UserObject label="&lt;font style=&quot;font-size: 10px;&quot; data-font-src=&quot;https://fonts.googleapis.com/css?family=Figtree&quot; color=&quot;#ffffff&quot;&gt;Gather people with shared interests from&amp;nbsp;&lt;/font&gt;&lt;span style=&quot;color: rgb(255, 255, 255);&quot;&gt;a wide variety of contexts (#4)&lt;/span&gt;" link="#point4" id="063DwYWzlrR6H0AeMpfx-29">
          <mxCell style="rounded=0;whiteSpace=wrap;html=1;strokeColor=none;fillColor=#4FAEDC;fontFamily=Figtree;fontSource=https%3A%2F%2Ffonts.googleapis.com%2Fcss%3Ffamily%3DFigtree;fontSize=10;" parent="WIyWlLk6GJQsqaUBKTNV-1" vertex="1">
            <mxGeometry x="560" y="456" width="160" height="50" as="geometry" />
          </mxCell>
        </UserObject>
        <mxCell id="063DwYWzlrR6H0AeMpfx-37" style="edgeStyle=orthogonalEdgeStyle;rounded=0;orthogonalLoop=1;jettySize=auto;html=1;exitX=0.5;exitY=1;exitDx=0;exitDy=0;entryX=0.5;entryY=0;entryDx=0;entryDy=0;fontFamily=Figtree;fontSource=https%3A%2F%2Ffonts.googleapis.com%2Fcss%3Ffamily%3DFigtree;fontSize=8;" parent="WIyWlLk6GJQsqaUBKTNV-1" source="063DwYWzlrR6H0AeMpfx-30" target="063DwYWzlrR6H0AeMpfx-36" edge="1">
          <mxGeometry relative="1" as="geometry" />
        </mxCell>
        <mxCell id="063DwYWzlrR6H0AeMpfx-30" value="&lt;font style=&quot;font-size: 10px;&quot; color=&quot;#ffffff&quot;&gt;Work with GA4GH&amp;nbsp;&lt;/font&gt;&lt;div&gt;&lt;font style=&quot;font-size: 10px;&quot; color=&quot;#ffffff&quot;&gt;staff&amp;nbsp;&lt;/font&gt;&lt;font color=&quot;#ffffff&quot;&gt;-&amp;nbsp;&lt;/font&gt;&lt;span style=&quot;color: rgb(255, 255, 255);&quot;&gt;are&amp;nbsp;&lt;/span&gt;&lt;span style=&quot;color: rgb(255, 255, 255);&quot;&gt;there solutions&lt;/span&gt;&lt;/div&gt;&lt;div&gt;&lt;span style=&quot;color: rgb(255, 255, 255);&quot;&gt;to&amp;nbsp;&lt;/span&gt;&lt;span style=&quot;color: rgb(255, 255, 255);&quot;&gt;the issues?&lt;/span&gt;&lt;/div&gt;" style="rhombus;whiteSpace=wrap;html=1;strokeColor=none;fillColor=#1b75bb;fontFamily=Figtree;fontSource=https%3A%2F%2Ffonts.googleapis.com%2Fcss%3Ffamily%3DFigtree;fontSize=10;spacingTop=0;vertical-align:middle;verticalAlign=middle;" parent="WIyWlLk6GJQsqaUBKTNV-1" vertex="1">
          <mxGeometry x="28" y="335" width="160" height="80" as="geometry" />
        </mxCell>
        <mxCell id="063DwYWzlrR6H0AeMpfx-60" value="" style="edgeStyle=orthogonalEdgeStyle;rounded=0;orthogonalLoop=1;jettySize=auto;html=1;fontFamily=Figtree;fontSource=https%3A%2F%2Ffonts.googleapis.com%2Fcss%3Ffamily%3DFigtree;fontSize=8;" parent="WIyWlLk6GJQsqaUBKTNV-1" source="063DwYWzlrR6H0AeMpfx-30" target="063DwYWzlrR6H0AeMpfx-36" edge="1">
          <mxGeometry relative="1" as="geometry" />
        </mxCell>
        <mxCell id="063DwYWzlrR6H0AeMpfx-36" value="&lt;span style=&quot;font-size: 10px;&quot;&gt;&lt;font style=&quot;font-size: 10px;&quot;&gt;End&lt;/font&gt;&lt;/span&gt;" style="rounded=1;whiteSpace=wrap;html=1;absoluteArcSize=0;arcSize=60;strokeColor=none;fillColor=#767676;fontColor=#FFFFFF;fontFamily=Figtree;fontSource=https%3A%2F%2Ffonts.googleapis.com%2Fcss%3Ffamily%3DFigtree;fontSize=10;" parent="WIyWlLk6GJQsqaUBKTNV-1" vertex="1">
          <mxGeometry x="28" y="455" width="160" height="50" as="geometry" />
        </mxCell>
        <mxCell id="063DwYWzlrR6H0AeMpfx-42" value="&lt;font data-font-src=&quot;https://fonts.googleapis.com/css?family=Figtree&quot; color=&quot;#000000&quot; style=&quot;font-size: 10px;&quot;&gt;Yes&lt;/font&gt;" style="edgeLabel;html=1;align=center;verticalAlign=middle;resizable=0;points=[];labelBackgroundColor=#FFFFFF;fontColor=#FFFFFF;fontSize=10;fontFamily=Figtree;fontSource=https%3A%2F%2Ffonts.googleapis.com%2Fcss%3Ffamily%3DFigtree;" parent="WIyWlLk6GJQsqaUBKTNV-1" connectable="0" vertex="1">
          <mxGeometry x="166" y="478" as="geometry">
            <mxPoint x="294" y="-79" as="offset" />
          </mxGeometry>
        </mxCell>
        <mxCell id="063DwYWzlrR6H0AeMpfx-43" value="&lt;font style=&quot;font-size: 10px; background-color: rgb(255, 255, 255);&quot; data-font-src=&quot;https://fonts.googleapis.com/css?family=Figtree&quot;&gt;No&lt;/font&gt;" style="edgeLabel;html=1;align=center;verticalAlign=middle;resizable=0;points=[];fontFamily=Figtree;labelBackgroundColor=#E6E6E6;fontSource=https%3A%2F%2Ffonts.googleapis.com%2Fcss%3Ffamily%3DFigtree;fontSize=10;" parent="WIyWlLk6GJQsqaUBKTNV-1" connectable="0" vertex="1">
          <mxGeometry x="20" y="270" as="geometry">
            <mxPoint x="220" y="-20" as="offset" />
          </mxGeometry>
        </mxCell>
        <UserObject label="&lt;font color=&quot;#ffffff&quot; style=&quot;font-size: 10px;&quot;&gt;Interest and support&lt;/font&gt;&lt;span style=&quot;color: rgb(255, 255, 255); font-size: 10px; background-color: initial;&quot;&gt;? (#3)&lt;/span&gt;" link="#point3" id="063DwYWzlrR6H0AeMpfx-45">
          <mxCell style="rhombus;whiteSpace=wrap;html=1;strokeColor=none;fillColor=#1b75bb;fontFamily=Figtree;fontSource=https%3A%2F%2Ffonts.googleapis.com%2Fcss%3Ffamily%3DFigtree;fontSize=10;" parent="WIyWlLk6GJQsqaUBKTNV-1" vertex="1">
            <mxGeometry x="290" y="546" width="160" height="80" as="geometry" />
          </mxCell>
        </UserObject>
        <UserObject label="&lt;span style=&quot;color: rgb(255, 255, 255); font-size: 10px; background-color: initial;&quot;&gt;Move ahead? (#5)&lt;/span&gt;" link="#point5" id="063DwYWzlrR6H0AeMpfx-46">
          <mxCell style="rhombus;whiteSpace=wrap;html=1;strokeColor=none;fillColor=#1b75bb;fontFamily=Figtree;fontSource=https%3A%2F%2Ffonts.googleapis.com%2Fcss%3Ffamily%3DFigtree;fontSize=10;" parent="WIyWlLk6GJQsqaUBKTNV-1" vertex="1">
            <mxGeometry x="560" y="546" width="160" height="80" as="geometry" />
          </mxCell>
        </UserObject>
        <mxCell id="063DwYWzlrR6H0AeMpfx-49" value="&lt;span style=&quot;font-size: 10px;&quot;&gt;&lt;font style=&quot;font-size: 10px;&quot;&gt;End&lt;/font&gt;&lt;/span&gt;" style="rounded=1;whiteSpace=wrap;html=1;absoluteArcSize=0;arcSize=60;strokeColor=none;fillColor=#767676;fontColor=#FFFFFF;fontFamily=Figtree;fontSource=https%3A%2F%2Ffonts.googleapis.com%2Fcss%3Ffamily%3DFigtree;fontSize=10;" parent="WIyWlLk6GJQsqaUBKTNV-1" vertex="1">
          <mxGeometry x="650" y="690" width="160" height="50" as="geometry" />
        </mxCell>
        <mxCell id="063DwYWzlrR6H0AeMpfx-50" value="&lt;span style=&quot;font-size: 10px;&quot;&gt;&lt;font style=&quot;font-size: 10px;&quot;&gt;End&lt;/font&gt;&lt;/span&gt;" style="rounded=1;whiteSpace=wrap;html=1;absoluteArcSize=0;arcSize=60;strokeColor=none;fillColor=#767676;fontColor=#FFFFFF;fontFamily=Figtree;fontSource=https%3A%2F%2Ffonts.googleapis.com%2Fcss%3Ffamily%3DFigtree;fontSize=10;" parent="WIyWlLk6GJQsqaUBKTNV-1" vertex="1">
          <mxGeometry x="210" y="688" width="160" height="50" as="geometry" />
        </mxCell>
        <UserObject label="&lt;font style=&quot;font-size: 10px;&quot; data-font-src=&quot;https://fonts.googleapis.com/css?family=Figtree&quot; color=&quot;#ffffff&quot;&gt;Proceed to STUDY&lt;/font&gt;" link="#section_4" id="063DwYWzlrR6H0AeMpfx-51">
          <mxCell style="rounded=0;whiteSpace=wrap;html=1;strokeColor=none;fillColor=#9f79b0;fontFamily=Figtree;fontSource=https%3A%2F%2Ffonts.googleapis.com%2Fcss%3Ffamily%3DFigtree;fontSize=10;" parent="WIyWlLk6GJQsqaUBKTNV-1" vertex="1">
            <mxGeometry x="430" y="688" width="160" height="50" as="geometry" />
          </mxCell>
        </UserObject>
        <UserObject label="&lt;font style=&quot;font-size: 10px;&quot; data-font-src=&quot;https://fonts.googleapis.com/css?family=Figtree&quot; color=&quot;#ffffff&quot;&gt;Proceed to UPDATES&lt;/font&gt;" link="#section_7" id="063DwYWzlrR6H0AeMpfx-125">
          <mxCell style="rounded=0;whiteSpace=wrap;html=1;strokeColor=none;fillColor=#9f79b0;fontFamily=Figtree;fontSource=https%3A%2F%2Ffonts.googleapis.com%2Fcss%3Ffamily%3DFigtree;fontSize=10;" parent="WIyWlLk6GJQsqaUBKTNV-1" vertex="1">
            <mxGeometry x="320" y="770" width="160" height="50" as="geometry" />
          </mxCell>
        </UserObject>
        <mxCell id="ZOXI7Zq2N7-W5Kde-tJO-0" value="&lt;font data-font-src=&quot;https://fonts.googleapis.com/css?family=Figtree&quot; style=&quot;font-size: 8px;&quot;&gt;No&lt;/font&gt;" style="edgeLabel;html=1;align=center;verticalAlign=middle;resizable=0;points=[];fontFamily=Figtree;labelBackgroundColor=#FFFFFF;fontSource=https%3A%2F%2Ffonts.googleapis.com%2Fcss%3Ffamily%3DFigtree;fontSize=8;" parent="WIyWlLk6GJQsqaUBKTNV-1" connectable="0" vertex="1">
          <mxGeometry x="109" y="431" as="geometry" />
        </mxCell>
        <mxCell id="ZOXI7Zq2N7-W5Kde-tJO-6" value="" style="endArrow=classic;html=1;rounded=1;exitX=1;exitY=0.5;exitDx=0;exitDy=0;entryX=0;entryY=0.5;entryDx=0;entryDy=0;curved=0;" parent="WIyWlLk6GJQsqaUBKTNV-1" source="063DwYWzlrR6H0AeMpfx-30" target="063DwYWzlrR6H0AeMpfx-21" edge="1">
          <mxGeometry width="50" height="50" relative="1" as="geometry">
            <mxPoint x="400" y="330" as="sourcePoint" />
            <mxPoint x="450" y="280" as="targetPoint" />
            <Array as="points">
              <mxPoint x="310" y="375" />
              <mxPoint x="310" y="310" />
            </Array>
          </mxGeometry>
        </mxCell>
        <mxCell id="ZOXI7Zq2N7-W5Kde-tJO-7" value="Yes" style="edgeLabel;html=1;align=center;verticalAlign=middle;resizable=0;points=[];fontFamily=Figtree;labelBackgroundColor=#FFFFFF;fontSize=10;fontSource=https%3A%2F%2Ffonts.googleapis.com%2Fcss%3Ffamily%3DFigtree;" parent="WIyWlLk6GJQsqaUBKTNV-1" connectable="0" vertex="1">
          <mxGeometry x="240" y="375.00172413793103" as="geometry" />
        </mxCell>
        <mxCell id="ZOXI7Zq2N7-W5Kde-tJO-8" value="" style="endArrow=classic;html=1;rounded=1;exitX=0.5;exitY=1;exitDx=0;exitDy=0;entryX=0.5;entryY=0;entryDx=0;entryDy=0;curved=0;" parent="WIyWlLk6GJQsqaUBKTNV-1" source="063DwYWzlrR6H0AeMpfx-21" target="063DwYWzlrR6H0AeMpfx-29" edge="1">
          <mxGeometry width="50" height="50" relative="1" as="geometry">
            <mxPoint x="460" y="420" as="sourcePoint" />
            <mxPoint x="510" y="370" as="targetPoint" />
            <Array as="points">
              <mxPoint x="508" y="400" />
              <mxPoint x="640" y="400" />
            </Array>
          </mxGeometry>
        </mxCell>
        <mxCell id="ZOXI7Zq2N7-W5Kde-tJO-9" value="No" style="edgeLabel;html=1;align=center;verticalAlign=middle;resizable=0;points=[];labelBackgroundColor=#FFFFFF;fontFamily=Figtree;fontSize=10;fontSource=https%3A%2F%2Ffonts.googleapis.com%2Fcss%3Ffamily%3DFigtree;" parent="WIyWlLk6GJQsqaUBKTNV-1" connectable="0" vertex="1">
          <mxGeometry x="428" y="133" as="geometry">
            <mxPoint x="126" y="266" as="offset" />
          </mxGeometry>
        </mxCell>
        <mxCell id="ZOXI7Zq2N7-W5Kde-tJO-14" value="" style="endArrow=classic;html=1;rounded=1;exitX=0.5;exitY=1;exitDx=0;exitDy=0;entryX=0.5;entryY=0;entryDx=0;entryDy=0;curved=0;" parent="WIyWlLk6GJQsqaUBKTNV-1" source="063DwYWzlrR6H0AeMpfx-45" target="063DwYWzlrR6H0AeMpfx-50" edge="1">
          <mxGeometry width="50" height="50" relative="1" as="geometry">
            <mxPoint x="470" y="660" as="sourcePoint" />
            <mxPoint x="520" y="610" as="targetPoint" />
            <Array as="points">
              <mxPoint x="370" y="640" />
              <mxPoint x="290" y="640" />
            </Array>
          </mxGeometry>
        </mxCell>
        <mxCell id="ZOXI7Zq2N7-W5Kde-tJO-15" value="" style="endArrow=classic;html=1;rounded=1;exitX=0.5;exitY=1;exitDx=0;exitDy=0;entryX=0.5;entryY=0;entryDx=0;entryDy=0;curved=0;" parent="WIyWlLk6GJQsqaUBKTNV-1" source="063DwYWzlrR6H0AeMpfx-45" target="063DwYWzlrR6H0AeMpfx-51" edge="1">
          <mxGeometry width="50" height="50" relative="1" as="geometry">
            <mxPoint x="470" y="660" as="sourcePoint" />
            <mxPoint x="520" y="610" as="targetPoint" />
            <Array as="points">
              <mxPoint x="370" y="640" />
              <mxPoint x="510" y="640" />
            </Array>
          </mxGeometry>
        </mxCell>
        <mxCell id="ZOXI7Zq2N7-W5Kde-tJO-16" value="" style="endArrow=classic;html=1;rounded=1;exitX=0.5;exitY=1;exitDx=0;exitDy=0;entryX=0.5;entryY=0;entryDx=0;entryDy=0;curved=0;" parent="WIyWlLk6GJQsqaUBKTNV-1" source="063DwYWzlrR6H0AeMpfx-45" target="063DwYWzlrR6H0AeMpfx-125" edge="1">
          <mxGeometry width="50" height="50" relative="1" as="geometry">
            <mxPoint x="470" y="660" as="sourcePoint" />
            <mxPoint x="520" y="610" as="targetPoint" />
            <Array as="points">
              <mxPoint x="370" y="640" />
              <mxPoint x="400" y="640" />
            </Array>
          </mxGeometry>
        </mxCell>
        <mxCell id="ZOXI7Zq2N7-W5Kde-tJO-17" value="No" style="edgeLabel;html=1;align=center;verticalAlign=middle;resizable=0;points=[];labelBackgroundColor=#FFFFFF;fontFamily=Figtree;fontSize=10;fontSource=https%3A%2F%2Ffonts.googleapis.com%2Fcss%3Ffamily%3DFigtree;" parent="WIyWlLk6GJQsqaUBKTNV-1" connectable="0" vertex="1">
          <mxGeometry x="207" y="374" as="geometry">
            <mxPoint x="126" y="266" as="offset" />
          </mxGeometry>
        </mxCell>
        <mxCell id="ZOXI7Zq2N7-W5Kde-tJO-18" value="&lt;font data-font-src=&quot;https://fonts.googleapis.com/css?family=Figtree&quot; color=&quot;#000000&quot; style=&quot;font-size: 10px;&quot;&gt;Yes:&amp;nbsp;&lt;/font&gt;&lt;div style=&quot;font-size: 10px;&quot;&gt;&lt;font data-font-src=&quot;https://fonts.googleapis.com/css?family=Figtree&quot; color=&quot;#000000&quot; style=&quot;font-size: 10px;&quot;&gt;establish new&lt;/font&gt;&lt;/div&gt;&lt;div style=&quot;font-size: 10px;&quot;&gt;&lt;font data-font-src=&quot;https://fonts.googleapis.com/css?family=Figtree&quot; color=&quot;#000000&quot; style=&quot;font-size: 10px;&quot;&gt;product&lt;/font&gt;&lt;/div&gt;" style="edgeLabel;html=1;align=center;verticalAlign=middle;resizable=0;points=[];labelBackgroundColor=#FFFFFF;fontColor=#FFFFFF;fontSize=10;fontFamily=Figtree;fontSource=https%3A%2F%2Ffonts.googleapis.com%2Fcss%3Ffamily%3DFigtree;" parent="WIyWlLk6GJQsqaUBKTNV-1" connectable="0" vertex="1">
          <mxGeometry x="470" y="501" as="geometry">
            <mxPoint x="-16" y="139" as="offset" />
          </mxGeometry>
        </mxCell>
        <mxCell id="ZOXI7Zq2N7-W5Kde-tJO-19" value="&lt;font data-font-src=&quot;https://fonts.googleapis.com/css?family=Figtree&quot; color=&quot;#000000&quot; style=&quot;font-size: 10px;&quot;&gt;Yes:&amp;nbsp;&lt;/font&gt;&lt;div style=&quot;font-size: 10px;&quot;&gt;&lt;font data-font-src=&quot;https://fonts.googleapis.com/css?family=Figtree&quot; color=&quot;#000000&quot; style=&quot;font-size: 10px;&quot;&gt;update existing&lt;/font&gt;&lt;/div&gt;&lt;div style=&quot;font-size: 10px;&quot;&gt;&lt;font data-font-src=&quot;https://fonts.googleapis.com/css?family=Figtree&quot; color=&quot;#000000&quot; style=&quot;font-size: 10px;&quot;&gt;product&lt;/font&gt;&lt;/div&gt;" style="edgeLabel;html=1;align=center;verticalAlign=middle;resizable=0;points=[];labelBackgroundColor=#FFFFFF;fontColor=#FFFFFF;fontSize=10;fontFamily=Figtree;fontSource=https%3A%2F%2Ffonts.googleapis.com%2Fcss%3Ffamily%3DFigtree;" parent="WIyWlLk6GJQsqaUBKTNV-1" connectable="0" vertex="1">
          <mxGeometry x="415" y="531" as="geometry">
            <mxPoint x="-16" y="139" as="offset" />
          </mxGeometry>
        </mxCell>
        <mxCell id="ZOXI7Zq2N7-W5Kde-tJO-20" value="" style="endArrow=classic;html=1;rounded=1;entryX=0.5;entryY=0;entryDx=0;entryDy=0;curved=0;exitX=0.5;exitY=1;exitDx=0;exitDy=0;" parent="WIyWlLk6GJQsqaUBKTNV-1" source="063DwYWzlrR6H0AeMpfx-46" target="063DwYWzlrR6H0AeMpfx-51" edge="1">
          <mxGeometry width="50" height="50" relative="1" as="geometry">
            <mxPoint x="640" y="630" as="sourcePoint" />
            <mxPoint x="520" y="684" as="targetPoint" />
            <Array as="points">
              <mxPoint x="640" y="640" />
              <mxPoint x="510" y="640" />
            </Array>
          </mxGeometry>
        </mxCell>
        <mxCell id="ZOXI7Zq2N7-W5Kde-tJO-21" value="&lt;font style=&quot;font-size: 10px;&quot; color=&quot;#000000&quot; data-font-src=&quot;https://fonts.googleapis.com/css?family=Figtree&quot;&gt;Yes&lt;/font&gt;" style="edgeLabel;html=1;align=center;verticalAlign=middle;resizable=0;points=[];labelBackgroundColor=#FFFFFF;fontColor=#FFFFFF;fontSize=10;fontFamily=Figtree;fontSource=https%3A%2F%2Ffonts.googleapis.com%2Fcss%3Ffamily%3DFigtree;" parent="WIyWlLk6GJQsqaUBKTNV-1" connectable="0" vertex="1">
          <mxGeometry x="256" y="549" as="geometry">
            <mxPoint x="344" y="91" as="offset" />
          </mxGeometry>
        </mxCell>
        <mxCell id="ZOXI7Zq2N7-W5Kde-tJO-22" value="" style="endArrow=classic;html=1;rounded=1;exitX=0.5;exitY=1;exitDx=0;exitDy=0;entryX=0.5;entryY=0;entryDx=0;entryDy=0;curved=0;" parent="WIyWlLk6GJQsqaUBKTNV-1" source="063DwYWzlrR6H0AeMpfx-46" target="063DwYWzlrR6H0AeMpfx-49" edge="1">
          <mxGeometry width="50" height="50" relative="1" as="geometry">
            <mxPoint x="510" y="710" as="sourcePoint" />
            <mxPoint x="560" y="660" as="targetPoint" />
            <Array as="points">
              <mxPoint x="640" y="640" />
              <mxPoint x="730" y="640" />
            </Array>
          </mxGeometry>
        </mxCell>
        <mxCell id="ZOXI7Zq2N7-W5Kde-tJO-25" value="&lt;span style=&quot;caret-color: rgb(0, 0, 0); color: rgb(0, 0, 0); font-family: Figtree; font-size: 10px; font-style: normal; font-variant-caps: normal; font-weight: 400; letter-spacing: normal; text-align: center; text-indent: 0px; text-transform: none; white-space: nowrap; word-spacing: 0px; -webkit-text-stroke-width: 0px; text-decoration: none; float: none; background-color: rgb(255, 255, 255); display: inline !important;&quot;&gt;No&lt;/span&gt;" style="text;whiteSpace=wrap;html=1;fontSize=10;" parent="WIyWlLk6GJQsqaUBKTNV-1" vertex="1">
          <mxGeometry x="678" y="626" width="40" height="40" as="geometry" />
        </mxCell>
      </root>
    </mxGraphModel>
  </diagram>
</mxfile>
